<svg width="235" height="30" viewBox="0 0 235 30" fill="none" xmlns="http://www.w3.org/2000/svg">
<path d="M39.9554 24.216C38.2274 24.216 36.7154 23.856 35.4194 23.136C34.1394 22.4 33.1554 21.376 32.4674 20.064C31.7794 18.736 31.4354 17.192 31.4354 15.432C31.4354 13.688 31.7794 12.16 32.4674 10.848C33.1554 9.52 34.1394 8.496 35.4194 7.776C36.7154 7.056 38.2274 6.696 39.9554 6.696C41.0914 6.696 42.1714 6.872 43.1954 7.224C44.2354 7.56 45.0834 8.04 45.7394 8.664L44.5634 11.352C43.7954 10.776 43.0434 10.36 42.3074 10.104C41.5874 9.832 40.8274 9.696 40.0274 9.696C38.4914 9.696 37.3154 10.184 36.4994 11.16C35.6834 12.136 35.2754 13.56 35.2754 15.432C35.2754 17.32 35.6834 18.76 36.4994 19.752C37.3154 20.728 38.4914 21.216 40.0274 21.216C40.8274 21.216 41.5874 21.088 42.3074 20.832C43.0434 20.56 43.7954 20.136 44.5634 19.56L45.7394 22.248C45.0834 22.872 44.2354 23.36 43.1954 23.712C42.1714 24.048 41.0914 24.216 39.9554 24.216ZM63.993 24H60.033L57.849 18.312C57.673 17.864 57.401 17.552 57.033 17.376C56.681 17.2 56.233 17.112 55.689 17.112H53.265V24H49.569V6.912H57.177C59.161 6.912 60.665 7.344 61.689 8.208C62.713 9.072 63.225 10.312 63.225 11.928C63.225 13.064 62.921 14.04 62.313 14.856C61.721 15.672 60.865 16.256 59.745 16.608C60.753 16.816 61.481 17.512 61.929 18.696L63.993 24ZM56.625 14.256C57.697 14.256 58.481 14.08 58.977 13.728C59.473 13.36 59.721 12.792 59.721 12.024C59.721 11.256 59.473 10.696 58.977 10.344C58.481 9.976 57.697 9.792 56.625 9.792H53.217V14.256H56.625ZM67.7612 6.912H79.5452V9.816H71.4092V13.848H79.0412V16.776H71.4092V21.096H79.5452V24H67.7612V6.912ZM94.518 20.208H86.526L84.894 24H81.126L88.974 6.912H91.998L99.846 24H96.15L94.518 20.208ZM93.294 17.352L90.534 10.944L87.774 17.352H93.294ZM104.285 9.96H98.9327V6.912H113.429V9.96H108.077V24H104.285V9.96ZM116.619 6.912H120.363V24H116.619V6.912ZM141.287 6.912L133.607 24H130.607L122.927 6.912H126.815L132.143 19.32L137.519 6.912H141.287ZM143.839 6.912H155.623V9.816H147.487V13.848H155.119V16.776H147.487V21.096H155.623V24H143.839V6.912ZM167.357 6.912H171.101V20.952H178.733V24H167.357V6.912ZM193.621 20.208H185.629L183.997 24H180.229L188.077 6.912H191.101L198.949 24H195.253L193.621 20.208ZM192.397 17.352L189.637 10.944L186.877 17.352H192.397ZM212.576 15.168C213.568 15.456 214.336 15.96 214.88 16.68C215.424 17.4 215.696 18.28 215.696 19.32C215.696 20.76 215.16 21.904 214.088 22.752C213.016 23.584 211.56 24 209.72 24H201.608V6.912H209.48C211.256 6.912 212.656 7.312 213.68 8.112C214.72 8.896 215.24 9.976 215.24 11.352C215.24 12.248 215 13.032 214.52 13.704C214.056 14.376 213.408 14.864 212.576 15.168ZM205.256 13.872H208.856C209.816 13.872 210.528 13.712 210.992 13.392C211.472 13.056 211.712 12.544 211.712 11.856C211.712 11.152 211.472 10.632 210.992 10.296C210.528 9.96 209.816 9.792 208.856 9.792H205.256V13.872ZM209.288 21.12C210.296 21.12 211.024 20.952 211.472 20.616C211.936 20.264 212.168 19.712 212.168 18.96C212.168 18.192 211.936 17.632 211.472 17.28C211.024 16.928 210.296 16.752 209.288 16.752H205.256V21.12H209.288ZM225.495 24.216C224.199 24.216 222.951 24.048 221.751 23.712C220.567 23.36 219.583 22.872 218.799 22.248L219.999 19.56C221.647 20.712 223.487 21.288 225.519 21.288C226.607 21.288 227.439 21.12 228.015 20.784C228.607 20.432 228.903 19.944 228.903 19.32C228.903 18.776 228.631 18.352 228.087 18.048C227.559 17.728 226.623 17.424 225.279 17.136C223.775 16.832 222.575 16.464 221.679 16.032C220.799 15.584 220.151 15.048 219.735 14.424C219.335 13.784 219.135 12.992 219.135 12.048C219.135 11.024 219.415 10.104 219.975 9.288C220.551 8.472 221.351 7.84 222.375 7.392C223.399 6.928 224.583 6.696 225.927 6.696C227.143 6.696 228.311 6.872 229.431 7.224C230.551 7.576 231.447 8.056 232.119 8.664L230.919 11.352C229.415 10.2 227.759 9.624 225.951 9.624C224.991 9.624 224.223 9.816 223.647 10.2C223.071 10.584 222.783 11.104 222.783 11.76C222.783 12.144 222.887 12.464 223.095 12.72C223.319 12.976 223.687 13.208 224.199 13.416C224.711 13.608 225.439 13.8 226.383 13.992C228.575 14.472 230.151 15.096 231.111 15.864C232.087 16.632 232.575 17.68 232.575 19.008C232.575 20.608 231.951 21.88 230.703 22.824C229.455 23.752 227.719 24.216 225.495 24.216Z" fill="black"/>
<path d="M15.4138 15.3989C16.5316 15.3989 17.4622 16.3178 17.2025 17.4049C16.2988 21.1876 12.8961 24.0001 8.83649 24.0001C4.08621 24.0001 0.235352 20.1492 0.235352 15.3989C0.235352 11.3393 3.04779 7.93663 6.83053 7.03294C7.91765 6.77323 8.83649 7.70386 8.83649 8.82158V13.3751C8.83649 14.4928 9.74258 15.3989 10.8603 15.3989H15.4138Z" fill="black"/>
<path fill-rule="evenodd" clip-rule="evenodd" d="M11.7556 6C10.6371 6 9.73047 6.90668 9.73047 8.02512V12.4804C9.73047 13.5988 10.6371 14.5055 11.7556 14.5055H16.2109C17.3293 14.5055 18.236 13.5988 18.236 12.4804V12.2779C18.236 11.1594 17.3293 10.2528 16.2109 10.2528H16.0083C14.8899 10.2528 13.9832 9.34608 13.9832 8.22763V8.02512C13.9832 6.90668 13.0765 6 11.9581 6H11.7556Z" fill="black"/>
</svg>
